<svg width="28" height="28" viewBox="0 0 16 16" fill="none" xmlns="http://www.w3.org/2000/svg">
<path d="M10.4779 1.64697C10.4972 1.5842 10.504 1.51824 10.4978 1.45286C10.4916 1.38748 10.4726 1.32396 10.4419 1.26592C10.4111 1.20788 10.3693 1.15647 10.3187 1.11461C10.268 1.07275 10.2097 1.04128 10.1469 1.02197C10.0841 1.00267 10.0182 0.995915 9.9528 1.0021C9.88742 1.00829 9.8239 1.02729 9.76586 1.05803C9.70783 1.08877 9.65641 1.13063 9.61456 1.18124C9.5727 1.23184 9.54122 1.2902 9.52192 1.35297L5.52192 14.353C5.48293 14.4797 5.4959 14.6168 5.55798 14.734C5.62005 14.8512 5.72614 14.939 5.85292 14.978C5.97969 15.017 6.11676 15.004 6.23397 14.9419C6.35118 14.8798 6.43893 14.7737 6.47792 14.647L10.4779 1.64697V1.64697ZM4.85392 4.14597C4.90048 4.19242 4.93742 4.24759 4.96263 4.30834C4.98784 4.36908 5.00081 4.4342 5.00081 4.49997C5.00081 4.56574 4.98784 4.63086 4.96263 4.6916C4.93742 4.75235 4.90048 4.80753 4.85392 4.85397L1.70692 7.99997L4.85392 11.146C4.9478 11.2399 5.00055 11.3672 5.00055 11.5C5.00055 11.6327 4.9478 11.7601 4.85392 11.854C4.76003 11.9479 4.63269 12.0006 4.49992 12.0006C4.36714 12.0006 4.2398 11.9479 4.14592 11.854L0.645917 8.35397C0.599354 8.30753 0.562411 8.25235 0.537205 8.1916C0.511998 8.13086 0.499023 8.06574 0.499023 7.99997C0.499023 7.9342 0.511998 7.86908 0.537205 7.80834C0.562411 7.74759 0.599354 7.69242 0.645917 7.64597L4.14592 4.14597C4.19236 4.09941 4.24754 4.06246 4.30828 4.03726C4.36903 4.01205 4.43415 3.99908 4.49992 3.99908C4.56568 3.99908 4.63081 4.01205 4.69155 4.03726C4.7523 4.06246 4.80747 4.09941 4.85392 4.14597V4.14597ZM11.1459 4.14597C11.0994 4.19242 11.0624 4.24759 11.0372 4.30834C11.012 4.36908 10.999 4.4342 10.999 4.49997C10.999 4.56574 11.012 4.63086 11.0372 4.6916C11.0624 4.75235 11.0994 4.80753 11.1459 4.85397L14.2929 7.99997L11.1459 11.146C11.0994 11.1925 11.0626 11.2476 11.0374 11.3084C11.0122 11.3691 10.9993 11.4342 10.9993 11.5C10.9993 11.5657 11.0122 11.6308 11.0374 11.6916C11.0626 11.7523 11.0994 11.8075 11.1459 11.854C11.1924 11.9005 11.2476 11.9373 11.3083 11.9625C11.3691 11.9877 11.4342 12.0006 11.4999 12.0006C11.5657 12.0006 11.6308 11.9877 11.6915 11.9625C11.7522 11.9373 11.8074 11.9005 11.8539 11.854L15.3539 8.35397C15.4005 8.30753 15.4374 8.25235 15.4626 8.1916C15.4878 8.13086 15.5008 8.06574 15.5008 7.99997C15.5008 7.9342 15.4878 7.86908 15.4626 7.80834C15.4374 7.74759 15.4005 7.69242 15.3539 7.64597L11.8539 4.14597C11.8075 4.09941 11.7523 4.06246 11.6916 4.03726C11.6308 4.01205 11.5657 3.99908 11.4999 3.99908C11.4341 3.99908 11.369 4.01205 11.3083 4.03726C11.2475 4.06246 11.1924 4.09941 11.1459 4.14597V4.14597Z" fill="black"/>
</svg>
