<svg width="56" height="52" viewBox="0 0 86 88" fill="none" xmlns="http://www.w3.org/2000/svg">
<path d="M8.28801 79.0031L0.567383 0.25H85.4324L77.7014 78.9906L42.9483 87.75L8.28801 79.0031Z" fill="#1572B6"/>
<path d="M43 81.0563L71.0844 73.9782L77.6912 6.69067H43V81.0563Z" fill="#33A9DC"/>
<path d="M43 35.2219H57.0594L58.0287 25.3312H43V15.6719H69.6406L69.3863 18.2625L66.7772 44.8812H43V35.2219Z" fill="white"/>
<path d="M43.0653 60.3062L43.0171 60.3187L31.1853 57.4125L30.429 49.7094H19.7625L21.2509 64.875L43.0137 70.3687L43.0653 70.3562V60.3062Z" fill="#EBEBEB"/>
<path d="M56.1554 44.4719L54.8767 57.4063L43.0276 60.3126V70.3626L64.8076 64.8751L64.9692 63.2438L66.8151 44.4719H56.1554Z" fill="white"/>
<path d="M43.0377 15.6719V25.3312H17.3733L17.1602 23.1594L16.6755 18.2625L16.4211 15.6719H43.0377Z" fill="#EBEBEB"/>
<path d="M43 35.2219V44.8813H31.3159L31.1028 42.7094L30.6216 37.8126L30.3672 35.2219H43Z" fill="#EBEBEB"/>
</svg>
