<svg width="48" height="52" viewBox="0 0 20 24" fill="none" xmlns="http://www.w3.org/2000/svg">
<path fill-rule="evenodd" clip-rule="evenodd" d="M13.172 0H8.996V5.932C8.373 5.782 7.856 5.732 7.18 5.732C2.816 5.731 0 8.305 0 12.273C0 16.391 2.655 18.536 7.755 18.541C9.458 18.541 11.033 18.391 13.172 18.011V0V0ZM7.734 8.977C8.25 8.977 8.654 9.027 9.142 9.177V15.425C8.546 15.5 8.17 15.525 7.708 15.525C5.568 15.525 4.403 14.383 4.403 12.315C4.403 10.19 5.623 8.977 7.734 8.977Z" fill="black"/>
<path d="M20 15.233V6.21497H15.83V13.89C15.83 17.277 15.642 18.564 15.045 19.676C14.475 20.763 13.583 21.476 11.74 22.282L15.615 24C17.458 23.138 18.35 22.357 19.027 21.12C19.753 19.832 20 18.338 20 15.233V15.233Z" fill="black"/>
<path d="M19.5839 0H15.4099V3.993H19.5849V0H19.5839Z" fill="black"/>
</svg>
