<svg width="48" height="52" viewBox="0 0 55 63" fill="none" xmlns="http://www.w3.org/2000/svg">
<path d="M25.0799 0.375H36.6032V47.5008C31.6843 48.4018 26.6777 48.8666 21.6563 48.8885C7.58425 48.8755 0.260498 43.2652 0.260498 32.4908C0.260498 22.1158 8.02891 15.3721 20.0695 15.3721C21.7582 15.3427 23.4436 15.5172 25.0799 15.8908V0.375V0.375ZM25.0799 24.0871C23.8271 23.7183 22.5131 23.5428 21.1942 23.5683C15.3817 23.5683 12.0017 26.7405 12.0017 32.2989C12.0017 37.712 15.219 40.7 21.1216 40.7C22.4463 40.6998 23.7693 40.6131 25.0799 40.4407V24.1V24.0871Z" fill="#44B78B"/>
<path d="M54.9124 16.0906V39.6937C54.9124 47.8199 54.2294 51.7261 52.2299 55.0954C50.1893 58.5212 46.8525 61.1895 42.8137 62.625L32.1245 58.1301C36.0078 56.9433 39.2603 54.5137 41.253 51.3111C42.898 48.4035 43.4182 45.0342 43.4182 36.1714V16.0906H54.9124Z" fill="#44B78B"/>
<path d="M43.4067 0.42688H54.9271V10.8745H43.4067V0.42688Z" fill="#44B78B"/>
</svg>
