<svg width="90" height="52" viewBox="0 0 189 68" fill="none" xmlns="http://www.w3.org/2000/svg">
<path d="M107.986 4.70872L108.401 4.97435C113.278 8.06445 116.775 12.3024 119.075 17.4233C119.627 18.2177 119.259 18.6593 118.155 18.9239L116.286 19.3829C112.06 20.4273 108.707 21.3057 104.537 22.3501L102.159 22.9444C101.302 23.1477 101.066 23.0623 100.155 22.0671L100.027 21.9258C98.7277 20.5134 97.7547 19.5699 96.0338 18.7277L95.7019 18.5708C89.9045 15.8342 84.2914 16.6286 79.0463 19.8954C72.7886 23.7799 69.5678 29.5188 69.6598 36.6701C69.7521 43.7329 74.813 49.56 82.0828 50.5312C88.3401 51.3259 93.5852 49.2069 97.7263 44.7044C98.5546 43.7329 99.2907 42.6736 100.211 41.4376H82.4512C80.5188 41.4376 80.0588 40.2901 80.703 38.7891L81.0219 38.0684C82.2046 35.4284 84.0389 31.6339 85.2301 29.4643L85.49 28.9971C85.8082 28.468 86.4542 27.7529 87.6963 27.7529H117.31C118.64 23.7101 120.798 19.8901 123.676 16.2755C130.394 7.79989 138.492 3.3852 149.442 1.5315C158.829 -0.0580047 167.663 0.824933 175.668 6.03402C182.938 10.8015 187.447 17.2469 188.644 25.7221C190.208 37.6413 186.619 47.3529 178.061 55.6521C171.988 61.5673 164.534 65.2755 155.976 66.9528C153.492 67.3945 151.007 67.4826 148.615 67.7476C140.241 67.5708 132.603 65.2755 126.161 59.9782C121.631 56.2205 118.51 51.6029 116.959 46.2266C115.871 48.3334 114.577 50.3363 113.094 52.2085C106.469 60.5962 97.8189 65.805 86.8684 67.2181C77.8503 68.3656 69.4763 66.6879 62.1145 61.3906C55.305 56.4465 51.4401 49.9131 50.4275 41.791C49.2315 32.1673 52.1762 23.515 58.2496 15.9223C64.7834 7.71135 73.4331 2.50262 84.0156 0.648558C92.5055 -0.824775 100.641 0.0836619 107.986 4.70872H107.986ZM151.761 17.3603L151.466 17.4233C142.909 19.2774 137.387 24.4861 135.363 32.7853C133.706 39.6717 137.203 46.6467 143.829 49.4718C148.89 51.5908 153.951 51.3259 158.828 48.942C166.098 45.3224 170.055 39.6717 170.515 32.0791C170.423 30.9316 170.423 30.0483 170.239 29.1653C168.601 20.5233 160.396 15.5923 151.761 17.3603ZM42.9739 33.4915C43.3419 33.4915 43.5261 33.7564 43.5261 34.1095L43.3419 36.2285C43.3419 36.5816 42.9739 36.8465 42.6977 36.8465L22.6372 36.7583C22.2691 36.7583 22.1772 36.4934 22.361 36.2285L23.6493 34.0213C23.8335 33.7564 24.2016 33.4915 24.5696 33.4915H42.9739ZM44.9982 25.369C45.3663 25.369 45.5505 25.634 45.4585 25.8989L44.7221 28.0178C44.6302 28.371 44.2622 28.5473 43.8941 28.5473L0.368019 28.6359C-1.36635e-05 28.6359 -0.0919297 28.4591 0.0919023 28.1942L2.02435 25.8107C2.20855 25.5458 2.6685 25.369 3.03654 25.369H44.9982ZM49.7834 17.2466C50.1514 17.2466 50.2433 17.5115 50.0595 17.7764L48.4951 20.0718C48.3109 20.3367 47.8509 20.6016 47.5748 20.6016L14.2636 20.5131C13.8952 20.5131 13.8033 20.3367 13.9871 20.0718L15.9195 17.6882C16.1037 17.4233 16.5637 17.2466 16.9317 17.2466H49.7834Z" fill="#00ACD7"/>
</svg>
