<svg width="56" height="52" viewBox="0 0 83 88" fill="none" xmlns="http://www.w3.org/2000/svg">
<path d="M8.36589 79.0031L0.99292 0.25H82.007L74.6242 78.9906L41.4507 87.75L8.36589 79.0031Z" fill="#E44F26"/>
<path d="M41.5 81.0563L68.3078 73.9782L74.6144 6.69067H41.5V81.0563Z" fill="#F1662A"/>
<path d="M41.5 35.8969H28.0797L27.1544 26.0063H41.5V16.3469H16.0703L16.3131 18.9407L18.8036 45.5563H41.5V35.8969Z" fill="#EBEBEB"/>
<path d="M41.4999 60.9812L41.454 60.9937L30.1599 58.0906L29.4381 50.3875H19.2563L20.6771 65.5499L41.454 71.0437L41.4999 71.0312V60.9812Z" fill="#EBEBEB"/>
<path d="M41.4639 35.8969V45.5562H53.9523L52.7776 58.0844L41.4639 60.9906V71.0406L62.2571 65.55L62.4081 63.9187L64.7903 38.4906L65.0396 35.8969H41.4639Z" fill="white"/>
<path d="M41.4639 16.3469V26.0063H65.9617L66.1651 23.8376L66.6278 18.9407L66.8706 16.3469H41.4639Z" fill="white"/>
</svg>
