<svg width="20" height="20" viewBox="0 0 295 291" fill="none" xmlns="http://www.w3.org/2000/svg">
<path d="M147.5 97.2048C120.477 97.2048 98.4236 118.907 98.4236 145.5C98.4236 172.093 120.477 193.795 147.5 193.795C174.523 193.795 196.576 172.093 196.576 145.5C196.576 118.907 174.523 97.2048 147.5 97.2048ZM294.692 145.5C294.692 125.501 294.876 105.683 293.735 85.7197C292.593 62.5322 287.218 41.9533 269.988 24.9974C252.721 8.00535 231.846 2.75194 208.284 1.62879C187.961 0.505649 167.823 0.686802 147.537 0.686802C127.214 0.686802 107.076 0.505649 86.7897 1.62879C63.2272 2.75194 42.3154 8.04158 25.0854 24.9974C7.81847 41.9895 2.48009 62.5322 1.33878 85.7197C0.197474 105.719 0.381556 125.537 0.381556 145.5C0.381556 165.463 0.197474 185.317 1.33878 205.28C2.48009 228.468 7.85529 249.047 25.0854 266.002C42.3523 282.995 63.2272 288.248 86.7897 289.371C107.112 290.494 127.251 290.313 147.537 290.313C167.859 290.313 187.998 290.494 208.284 289.371C231.846 288.248 252.758 282.958 269.988 266.002C287.255 249.01 292.593 228.468 293.735 205.28C294.913 185.317 294.692 165.499 294.692 145.5V145.5ZM147.5 219.809C105.713 219.809 71.9895 186.622 71.9895 145.5C71.9895 104.378 105.713 71.1913 147.5 71.1913C189.287 71.1913 223.01 104.378 223.01 145.5C223.01 186.622 189.287 219.809 147.5 219.809ZM226.103 85.5023C216.347 85.5023 208.468 77.749 208.468 68.1479C208.468 58.5469 216.347 50.7935 226.103 50.7935C235.859 50.7935 243.738 58.5469 243.738 68.1479C243.741 70.4277 243.287 72.6857 242.402 74.7925C241.516 76.8994 240.217 78.8136 238.579 80.4257C236.941 82.0378 234.996 83.316 232.855 84.1871C230.714 85.0583 228.42 85.5052 226.103 85.5023V85.5023Z" fill="black"/>
</svg>
