<svg width="50" height="52" viewBox="0 0 24 26" fill="none" xmlns="http://www.w3.org/2000/svg">
<path d="M11.994 0C11.629 0 11.264 0.09 10.949 0.27L1.04 5.99C0.4 6.36 0 7.06 0 7.8V18.18C0 18.93 0.4 19.62 1.04 19.99L3.64 21.49C4.9 22.11 5.35 22.11 5.92 22.11C7.79 22.11 8.86 20.98 8.86 19.02V8.31C8.86 8.23309 8.82945 8.15933 8.77506 8.10494C8.72068 8.05055 8.64691 8.02 8.57 8.02H7.32C7.28177 8.01946 7.24382 8.02659 7.20839 8.04098C7.17296 8.05536 7.14078 8.0767 7.11374 8.10374C7.0867 8.13078 7.06536 8.16296 7.05098 8.19839C7.03659 8.23382 7.02946 8.27177 7.03 8.31V19.01C7.03 19.89 6.12 20.75 4.65 20.02L1.93 18.45C1.88122 18.4239 1.84052 18.3849 1.81232 18.3373C1.78411 18.2897 1.76948 18.2353 1.77 18.18V7.81C1.77 7.69 1.83 7.59 1.93 7.53L11.84 1.81C11.8864 1.78067 11.9401 1.7651 11.995 1.7651C12.0499 1.7651 12.1036 1.78067 12.15 1.81L22.06 7.53C22.16 7.59 22.22 7.69 22.22 7.8V18.18C22.22 18.29 22.16 18.4 22.07 18.45L12.15 24.18C12.102 24.2046 12.0489 24.2174 11.995 24.2174C11.9411 24.2174 11.888 24.2046 11.84 24.18L9.29 22.67C9.25575 22.6448 9.21519 22.6296 9.17283 22.6261C9.13046 22.6225 9.08794 22.6308 9.05 22.65C8.34 23.05 8.21 23.1 7.55 23.33C7.39 23.38 7.14 23.48 7.64 23.76L10.95 25.72C11.27 25.9 11.63 26 11.99 26C12.36 26 12.72 25.9 13.04 25.72L22.96 19.99C23.6 19.62 24 18.93 24 18.18V7.81C24 7.06 23.6 6.37 22.96 6L13.04 0.27C12.724 0.09 12.36 0 11.994 0V0ZM14.66 8.006C11.83 8.006 10.14 9.206 10.14 11.206C10.14 13.376 11.82 13.974 14.54 14.244C17.79 14.564 18.04 15.046 18.04 15.686C18.04 16.786 17.15 17.256 15.06 17.256C12.43 17.256 11.85 16.595 11.66 15.295C11.6503 15.2279 11.6166 15.1665 11.5651 15.1224C11.5136 15.0783 11.4478 15.0543 11.38 15.055H10.09C10.0157 15.055 9.94452 15.0845 9.89201 15.137C9.8395 15.1895 9.81 15.2607 9.81 15.335C9.81 17.005 10.72 18.995 15.06 18.995C18.2 18.995 20 17.755 20 15.595C20 13.455 18.55 12.885 15.51 12.475C12.42 12.075 12.11 11.865 12.11 11.145C12.11 10.545 12.38 9.755 14.66 9.755C16.69 9.755 17.45 10.195 17.76 11.565C17.79 11.695 17.9 11.795 18.04 11.795H19.33C19.41 11.795 19.48 11.755 19.54 11.695C19.5672 11.6658 19.5876 11.6309 19.5997 11.5929C19.6118 11.5548 19.6153 11.5146 19.61 11.475C19.41 9.115 17.84 8.005 14.66 8.005V8.006Z" fill="black"/>
</svg>
