<svg width="50" height="52" viewBox="0 0 63 46" fill="none" xmlns="http://www.w3.org/2000/svg">
<path d="M39.1083 32.3281C39.9033 33.9986 41.1368 35.4027 42.6671 36.3791C44.1974 37.3555 45.9624 37.8646 47.7593 37.8478C51.3929 37.8478 53.7145 35.9645 53.7145 33.364C53.7145 30.2482 51.3288 29.1432 47.3313 27.329L45.1378 26.3542C38.811 23.5598 34.606 20.0589 34.606 12.6586C34.606 5.83996 39.6182 0.652302 47.4492 0.652302C49.9908 0.461134 52.5304 1.05084 54.7505 2.3477C56.9705 3.64455 58.7725 5.59101 59.9312 7.94371L53.1021 12.4886C52.6549 11.3227 51.8761 10.3255 50.8692 9.6295C49.8622 8.93346 48.6747 8.57155 47.4646 8.59183C46.9371 8.53682 46.4044 8.59635 45.9003 8.76663C45.3962 8.93691 44.932 9.21421 44.537 9.58084C44.1421 9.94747 43.8252 10.3954 43.6066 10.896C43.388 11.3967 43.2724 11.939 43.2672 12.4886C43.2672 15.2165 44.897 16.3189 48.6485 18.0082L50.842 18.9804C58.2937 22.2928 62.4988 25.6689 62.4988 33.2604C62.4988 41.4443 56.2975 45.9281 47.9668 45.9281C44.7219 46.142 41.4865 45.3781 38.6511 43.7285C35.8156 42.0788 33.5012 39.614 31.9871 36.6312L39.1083 32.3281ZM8.13278 33.125C9.5114 35.659 10.7645 37.8 13.7703 37.8C16.6505 37.8 18.4699 36.6312 18.4699 32.089V1.18355H27.2388V32.2165C27.2388 41.6276 21.9139 45.9121 14.1444 45.9121C11.3999 46.0662 8.67479 45.3553 6.32749 43.8733C3.98018 42.3912 2.12069 40.2072 0.993652 37.6087L8.13278 33.125Z" fill="#F5DE19"/>
</svg>
