<svg width="60" height="52" viewBox="0 0 128 120" fill="none" xmlns="http://www.w3.org/2000/svg">
<path d="M127.928 27.0999C127.976 27.2595 128 27.424 128 27.5895V53.3022C128 53.974 127.605 54.5945 126.964 54.9286L103.225 67.3545V91.9817C103.225 92.3113 103.13 92.635 102.949 92.9206C102.768 93.2061 102.508 93.4434 102.194 93.6086L52.64 119.542C52.5265 119.6 52.403 119.637 52.279 119.678C52.2325 119.691 52.189 119.717 52.14 119.729C51.7936 119.812 51.4294 119.812 51.083 119.729C51.026 119.715 50.9745 119.687 50.9205 119.668C50.807 119.63 50.6885 119.598 50.5805 119.542L1.0365 93.6081C0.721671 93.4438 0.46007 93.207 0.27809 92.9214C0.0961102 92.6359 0.000187681 92.3117 0 91.9817L0 14.8436C0 14.6745 0.026 14.5104 0.072 14.3513C0.0875 14.2972 0.1235 14.2481 0.1445 14.194C0.183 14.0958 0.2195 13.9949 0.276 13.9036C0.3145 13.8427 0.371 13.7936 0.4175 13.7372C0.477 13.6622 0.531 13.5849 0.6005 13.519C0.66 13.4654 0.7375 13.4254 0.8045 13.3786C0.8795 13.3222 0.946 13.2613 1.031 13.2167H1.0335L25.8065 0.250379C26.1202 0.0862573 26.4758 -0.00012207 26.8377 -0.00012207C27.1997 -0.00012207 27.5553 0.0862573 27.869 0.250379L52.642 13.2167H52.647C52.7295 13.264 52.7995 13.3222 52.874 13.3763C52.941 13.4231 53.016 13.4654 53.075 13.5172C53.1475 13.5849 53.199 13.6627 53.2605 13.7372C53.3045 13.7936 53.364 13.8427 53.4 13.9036C53.459 13.9972 53.4925 14.0958 53.534 14.1945C53.5545 14.2481 53.5905 14.2972 53.606 14.3536C53.6535 14.5131 53.678 14.6781 53.6785 14.8436V63.0226L74.3215 52.2167V27.5872C74.3215 27.4236 74.3475 27.2567 74.394 27.0999C74.412 27.0436 74.4455 26.9945 74.466 26.9408C74.5075 26.8422 74.5435 26.7408 74.6 26.6499C74.6385 26.589 74.695 26.5399 74.7395 26.4836C74.801 26.4086 74.8525 26.3313 74.9245 26.2654C74.9845 26.2117 75.059 26.1717 75.126 26.1249C75.2035 26.0686 75.2705 26.0077 75.353 25.9631H75.3555L100.131 12.9967C100.445 12.8324 100.8 12.7459 101.162 12.7459C101.524 12.7459 101.88 12.8324 102.193 12.9967L126.966 25.9631C127.054 26.0099 127.121 26.0686 127.199 26.1222C127.263 26.1695 127.338 26.2117 127.397 26.2631C127.469 26.3313 127.521 26.4086 127.582 26.4836C127.629 26.5399 127.686 26.589 127.722 26.6499C127.781 26.7408 127.814 26.8422 127.855 26.9408C127.879 26.9945 127.912 27.0436 127.928 27.0999ZM123.87 52.2172V30.8354L115.201 35.3722L103.225 41.6413V63.0231L123.873 52.2172H123.87ZM99.0975 90.8967V69.4999L87.3165 75.6167L53.676 93.0713V114.669L99.0975 90.8958V90.8967ZM4.1295 18.089V90.8967L49.546 114.667V93.0736L25.82 80.8663L25.8125 80.8617L25.8025 80.8572C25.7225 80.8149 25.655 80.754 25.5805 80.7027C25.5155 80.6554 25.441 80.6181 25.3845 80.5663L25.3795 80.5595C25.3125 80.5008 25.266 80.4281 25.2095 80.3627C25.1575 80.299 25.096 80.2454 25.0545 80.1799L25.052 80.1727C25.0055 80.1027 24.977 80.0181 24.9435 79.9386C24.91 79.8681 24.8665 79.8022 24.8455 79.7277V79.7254C24.82 79.6363 24.815 79.5422 24.8045 79.4508C24.7945 79.3808 24.7735 79.3104 24.7735 79.2399V28.8954L12.799 22.6236L4.1295 18.0917V18.089ZM26.8405 4.0422L6.1995 14.8436L26.8355 25.6445L47.4735 14.8408L26.8355 4.0422H26.8405ZM37.5745 71.4504L49.5485 65.184V18.089L40.88 22.6263L28.9025 28.8949V75.9895L37.5745 71.4504ZM101.162 16.7886L80.524 27.5895L101.162 38.3908L121.798 27.5872L101.162 16.7886H101.162ZM99.097 41.6413L87.1205 35.3722L78.4515 30.8354V52.2172L90.4255 58.484L99.0975 63.0231V41.6413H99.097ZM51.6085 89.8258L81.88 74.1149L97.012 66.264L76.389 55.4699L52.6445 67.8972L31.0035 79.2236L51.6085 89.8258Z" fill="#FF2D20"/>
</svg>
