<svg width="68" height="52" viewBox="0 0 63 43" fill="none" xmlns="http://www.w3.org/2000/svg">
<path d="M19.6251 41.2721C19.2788 40.6879 19.1562 40.0142 19.2768 39.3587H4.53542L26.4323 4.06573L35.66 19.1173L38.5622 17.1348L29.4498 2.13605C29.145 1.62326 28.7071 1.187 28.1747 0.865716C27.6422 0.544429 27.0317 0.347985 26.3968 0.293701C25.7574 0.317842 25.1385 0.506821 24.6113 0.838875C24.0841 1.17093 23.6701 1.63255 23.417 2.17058L1.22948 37.9064C0.892002 38.4073 0.69746 38.9779 0.663731 39.5657C0.630002 40.1534 0.758167 40.7395 1.03645 41.2701C1.37392 41.7624 1.85576 42.1578 2.42698 42.4114C2.9982 42.665 3.63578 42.7664 4.26695 42.7042H22.8468C22.2168 42.7684 21.5798 42.6691 21.0086 42.4177C20.4374 42.1663 19.9549 41.7728 19.6163 41.2823L19.6251 41.2721Z" fill="#00C58E"/>
<path d="M61.7548 37.9775L43.9005 8.95294C43.6103 8.43996 43.1835 8.00223 42.6596 7.68022C42.1357 7.3582 41.5315 7.16229 40.903 7.1106C40.2784 7.13485 39.6742 7.32084 39.1605 7.64696C38.6468 7.97308 38.2447 8.42594 38.0009 8.95294L35.6401 12.4061V19.1092L40.9008 10.84L58.5421 39.4217H51.8304C51.9372 40.0004 51.8425 40.5952 51.5597 41.1218L51.502 41.2275C51.1385 41.6993 50.6536 42.0819 50.0901 42.3412C49.5266 42.6006 48.902 42.7287 48.2715 42.7143H58.775C59.4058 42.7303 60.0311 42.6029 60.5949 42.3434C61.1586 42.0839 61.6433 41.7005 62.0055 41.2275C62.2891 40.7148 62.4138 40.1408 62.3661 39.5679C62.3184 38.9949 62.1001 38.4448 61.7349 37.9775H61.7548Z" fill="#108775"/>
<path d="M51.9857 41.2032L52.0434 41.0976L52.1987 40.8152C52.3881 40.3621 52.435 39.8696 52.3341 39.3933C52.235 38.8735 52.0319 38.375 51.735 37.9227L37.788 15.7821L35.6801 12.4183H35.6424L33.5146 15.7658L19.5875 37.9065C19.3161 38.358 19.1329 38.8495 19.0462 39.3588C18.9147 40.0122 19.0306 40.6872 19.3745 41.2722C19.7251 41.7647 20.2182 42.1584 20.7987 42.4094C21.3793 42.6605 22.0246 42.759 22.6627 42.6941H48.6399C49.2895 42.713 49.9343 42.5857 50.5177 42.3233C51.1011 42.0609 51.6052 41.6714 51.9857 41.189V41.2032ZM35.6402 19.1357L48.4069 39.3751H22.8735L35.6402 19.1357Z" fill="#2F495E"/>
</svg>
