<svg width="70" height="52" viewBox="0 0 64 26" fill="none" xmlns="http://www.w3.org/2000/svg">
<path d="M13.1 8.72003C13.7938 8.64491 14.498 8.68893 15.1719 8.84956C15.8458 9.01018 16.4761 9.28422 17.0263 9.65584C17.3813 10.1267 17.6076 10.6608 17.6883 11.2179C17.769 11.775 17.7018 12.3406 17.492 12.8721C17.3079 14.1806 16.573 15.3856 15.4265 16.2588C14.0439 17.0258 12.4094 17.3855 10.769 17.2838H7.619L9.554 8.73746L13.1 8.72003ZM0.5 25.9366H5.675L6.90125 20.5117H11.327C12.9575 20.5474 14.5846 20.3664 16.151 19.975C17.4375 19.6092 18.6134 19.0017 19.5935 18.1963C21.2887 16.8837 22.4311 15.1246 22.8425 13.1937C23.1672 12.2327 23.2244 11.2193 23.0094 10.2357C22.7944 9.25209 22.3132 8.32595 21.605 7.53234C20.7511 6.80369 19.7229 6.24431 18.592 5.89327C17.4611 5.54223 16.2549 5.40798 15.0575 5.4999H5.12825L0.5 25.9366Z" fill="#8993BE"/>
<path d="M26.6383 0.0633545H31.7751L30.5308 5.48836H35.1006C37.2 5.29906 39.3093 5.75846 41.0518 6.78454C41.6284 7.34892 42.0225 8.0339 42.1947 8.7708C42.3668 9.5077 42.311 10.2706 42.0328 10.9831L39.8863 20.4943H34.6888L36.7318 11.452C36.874 11.107 36.9247 10.739 36.8803 10.3749C36.8359 10.0108 36.6976 9.65992 36.4753 9.34785C35.7305 8.88769 34.8099 8.68951 33.9013 8.79373H29.7996L27.1558 20.504H22.0078L26.6383 0.0633545Z" fill="#8993BE"/>
<path d="M53.4628 8.72003C54.1566 8.64491 54.8608 8.68894 55.5347 8.84956C56.2086 9.01019 56.8389 9.28422 57.389 9.65584C57.7441 10.1267 57.9704 10.6608 58.0511 11.2179C58.1318 11.775 58.0646 12.3406 57.8548 12.8721C57.6707 14.1806 56.9358 15.3856 55.7893 16.2588C54.4041 17.0274 52.7662 17.3872 51.1228 17.2838H47.975L49.9055 8.72778L53.4628 8.72003ZM40.8628 25.9367H46.0378L47.264 20.5117H51.692C53.3255 20.5482 54.9558 20.3672 56.525 19.975C57.8115 19.6092 58.9874 19.0017 59.9675 18.1963C61.6585 16.8823 62.797 15.1233 63.2053 13.1937C63.53 12.2327 63.5872 11.2193 63.3722 10.2357C63.1572 9.25209 62.676 8.32595 61.9678 7.53234C61.1136 6.80499 60.0854 6.24685 58.955 5.89683C57.8245 5.54681 56.619 5.41333 55.4225 5.50571H45.4775L40.8628 25.9367Z" fill="#8993BE"/>
</svg>
