<svg width="52" height="52" viewBox="0 0 69 64" fill="none" xmlns="http://www.w3.org/2000/svg">
<path d="M34.2078 0.0180664C16.7336 0.0180664 17.8246 7.07438 17.8246 7.07438L17.844 14.3849H34.5194V16.5798H11.2208C11.2208 16.5798 0.0390625 15.3989 0.0390625 31.8168C0.0390625 48.2352 9.79879 47.6529 9.79879 47.6529H15.6234V40.0341C15.6234 40.0341 15.3094 30.9461 25.2273 30.9461H41.7663C41.7663 30.9461 51.0584 31.0859 51.0584 22.5837V8.5258C51.0584 8.5258 52.4696 0.0180664 34.2078 0.0180664ZM25.013 4.93427C25.4071 4.93394 25.7973 5.00597 26.1614 5.14623C26.5256 5.2865 26.8564 5.49225 27.1351 5.7517C27.4137 6.01116 27.6346 6.31924 27.7853 6.6583C27.9359 6.99736 28.0133 7.36075 28.0129 7.72768C28.0133 8.09461 27.9359 8.458 27.7853 8.79706C27.6346 9.13613 27.4137 9.4442 27.1351 9.70366C26.8564 9.96312 26.5256 10.1689 26.1614 10.3091C25.7973 10.4494 25.4071 10.5214 25.013 10.5211C24.619 10.5214 24.2287 10.4494 23.8646 10.3091C23.5005 10.1689 23.1696 9.96312 22.891 9.70366C22.6124 9.4442 22.3914 9.13613 22.2408 8.79706C22.0901 8.458 22.0128 8.09461 22.0131 7.72768C22.0128 7.36075 22.0901 6.99736 22.2408 6.6583C22.3914 6.31924 22.6124 6.01116 22.891 5.7517C23.1696 5.49225 23.5005 5.2865 23.8646 5.14623C24.2287 5.00597 24.619 4.93394 25.013 4.93427Z" fill="url(#paint0_linear_0_1)"/>
<path d="M34.704 63.7807C52.1782 63.7807 51.0872 56.7244 51.0872 56.7244L51.0678 49.4141H34.3921V47.2192H57.6907C57.6907 47.2192 68.8725 48.4001 68.8725 31.9817C68.8725 15.5636 59.1127 16.1459 59.1127 16.1459H53.2882V23.7644C53.2882 23.7644 53.6022 32.8524 43.6842 32.8524H27.1452C27.1452 32.8524 17.8532 32.7126 17.8532 41.215V55.2732C17.8532 55.2732 16.4422 63.7807 34.7037 63.7807H34.704ZM43.8988 58.865C43.5047 58.8653 43.1145 58.7933 42.7504 58.653C42.3862 58.5128 42.0554 58.307 41.7767 58.0476C41.4981 57.7881 41.2772 57.48 41.1265 57.141C40.9759 56.8019 40.8985 56.4385 40.8989 56.0716C40.8985 55.7046 40.9758 55.3412 41.1264 55.0021C41.2771 54.663 41.498 54.3549 41.7767 54.0954C42.0553 53.8359 42.3861 53.6302 42.7503 53.4899C43.1144 53.3496 43.5047 53.2776 43.8988 53.2779C44.2928 53.2776 44.6831 53.3496 45.0472 53.4899C45.4113 53.6301 45.7422 53.8359 46.0208 54.0953C46.2994 54.3548 46.5204 54.6629 46.671 55.0019C46.8217 55.341 46.899 55.7044 46.8987 56.0713C46.899 56.4383 46.8217 56.8016 46.671 57.1407C46.5204 57.4798 46.2994 57.7878 46.0208 58.0473C45.7422 58.3068 45.4113 58.5125 45.0472 58.6528C44.6831 58.793 44.2928 58.8651 43.8988 58.8647V58.865Z" fill="url(#paint1_linear_0_1)"/>
<defs>
<linearGradient id="paint0_linear_0_1" x1="6.65393" y1="5.75313" x2="38.3599" y2="39.463" gradientUnits="userSpaceOnUse">
<stop stop-color="#387EB8"/>
<stop offset="1" stop-color="#366994"/>
</linearGradient>
<linearGradient id="paint1_linear_0_1" x1="27.5917" y1="25.9466" x2="61.7526" y2="60.6269" gradientUnits="userSpaceOnUse">
<stop stop-color="#FFE052"/>
<stop offset="1" stop-color="#FFC331"/>
</linearGradient>
</defs>
</svg>
